# xmcd
#
# Track frame offsets: 
#        150
#        450
#        12592
#        27116
#        40594
#        54552
#        73310
#        86144
#        99088
#        107261
#        126248
#        131104
#        144090
#        158458
#        172483
#        222182
#        223835
#        231897
#        249258
#        252749
#        266903
#        275494
#        304580
#        309425
#
# Disc length: 4371 seconds
#
# Revision: 0
# Processed by: cddbd v1.5.1PL2 Copyright (c) Steve Scherf et al.
# Submitted via: ExactAudioCopy v0.95b4
#
DISCID=54111118
DTITLE=Various Artist - The Blues Roots of Led Zeppelin [CD3]
DYEAR=1900
DGENRE=Rock and Blues
TTITLE0=1. Jimmy Page
TTITLE1=2. I Want Some Of Your Pie - Blind Boy Fuller
TTITLE2=3. Drop Down Mama - Sleepy Joe Estes
TTITLE3=4. Shake 'Em On Down - Bukka White
TTITLE4=5. My Mama Don't Allow Me - Arthur Cudrup
TTITLE5=6. Drop Down Mama - Tom Rush
TTITLE6=7. Drop Down Mama - Mississippi Fred Mcdowell
TTITLE7=8. Put On Your Nightcap - Big Joe Williamson
TTITLE8=9. Put On Your Nightcap - Big Joe Williamson
TTITLE9=10. Custard Pie - Led Zeppelin
TTITLE10=11. LZ Remembered - Robert Plant
TTITLE11=12. Jesus Is A Dying Bed Maker - Charley Patton
TTITLE12=13. In My Time Of Dying (Jesus Make My Dying Bed) - Blind Wil
TTITLE12=lie Johnson
TTITLE13=14. Jesus Gonna Make Up My Dying Bed - Josh White
TTITLE14=15. In My Time Of Dying - Led Zeppelin
TTITLE15=16. LZ Most Satisfying - Jimmy Page
TTITLE16=17. Ooh! My Head - Ritchie Valens
TTITLE17=18. Boogie With Stu - Led Zeppelin
TTITLE18=19. The Name "Led Zeppelin" - John Paul Jones
TTITLE19=20. Nobody's Fault But Mine - Blind Willie Johnson
TTITLE20=21. Nobody's Fault But Mine - John Renbourne
TTITLE21=22. Nobody's Fault But Miine - Led Zeppelin
TTITLE22=23. How NFBM Developed - Page and Plant
TTITLE23=24. Nobody's Fault But Mine - Page and Plant
EXTD=
EXTT0=
EXTT1=
EXTT2=
EXTT3=
EXTT4=
EXTT5=
EXTT6=
EXTT7=
EXTT8=
EXTT9=
EXTT10=
EXTT11=
EXTT12=
EXTT13=
EXTT14=
EXTT15=
EXTT16=
EXTT17=
EXTT18=
EXTT19=
EXTT20=
EXTT21=
EXTT22=
EXTT23=
PLAYORDER=
